<svg xmlns="http://www.w3.org/2000/svg" version="1.1" xmlns:xlink="http://www.w3.org/1999/xlink" xmlns:svgjs="http://svgjs.dev/svgjs" width="100%" height="100%" viewBox="0 0 1000 600"><rect width="1000" height="600" x="0" y="0" fill="#00000000"/><g><rect width="333.3333333333333" height="333.3333333333333" rx="13.333333333333334" ry="13.333333333333334" y="174.09163671650282" fill="azure" transform="matrix(0.823075538351588,0,0,0.823075538351588,0,19.530173158572154)" x="151.8694610595703"/><path d="M256.3664594633217 414.91101591836536L256.3664594633217 414.91101591836536L256.3664594633217 411.9152523332487Q256.3664594633217 411.06796566271066 257.21374613385973 411.06796566271066L257.21374613385973 411.06796566271066L259.5437844778394 411.06796566271066Q264.02229973639766 410.76536328037565 268.68237642435696 410.7048428039086Q273.37271335054976 410.6443223274416 277.2157636062045 409.58521398926905L277.2157636062045 409.58521398926905Q285.9307122174531 407.0433539776549 285.9307122174531 396.81539345473124L285.9307122174531 396.81539345473124L285.9307122174531 284.7012107996065Q285.9307122174531 274.17064789434784 273.4937543034838 271.29592526216516L273.4937543034838 271.29592526216516Q269.98356666839754 270.53941930632755 266.3523380803773 270.02499525635807L266.3523380803773 270.02499525635807L264.11308045109814 270.02499525635807Q263.2657937805601 270.02499525635807 263.2657937805601 269.1474483475865L263.2657937805601 269.1474483475865L263.2657937805601 266.60558833597236Q263.2657937805601 265.75830166543426 264.11308045109814 265.75830166543426L264.11308045109814 265.75830166543426L365.3033171039287 265.75830166543426Q367.2097121126393 265.75830166543426 368.05699878317733 266.4542871448048Q368.9042854537154 267.1502726241754 369.1161071213499 269.480310968155L369.1161071213499 269.480310968155L371.02250213006056 300.34575396632704Q371.02250213006056 301.4048623044996 369.44896974191846 301.4048623044996Q367.84517711554287 301.4048623044996 367.0886711597053 300.4365346810275L367.0886711597053 300.4365346810275Q366.4532061568018 299.37742634285496 365.4546182950962 292.6596534550175Q364.42577019515716 285.9721408054136 361.7931294688425 281.4936255468553Q359.1302285042943 277.0453705265305 352.41245561645684 275.865221235424L352.41245561645684 275.865221235424L308.05094636614297 275.865221235424Q306.6892356456354 275.865221235424 306.6892356456354 277.257192194165L306.6892356456354 277.257192194165L306.6892356456354 332.24004506443805Q306.6892356456354 333.2991534026106 307.748343983808 333.2991534026106L307.748343983808 333.2991534026106L344.54479367574635 333.2991534026106Q358.7973658837258 333.2991534026106 358.7973658837258 316.7165428506516L358.7973658837258 316.7165428506516Q358.7973658837258 315.86925618011355 359.6446525542638 315.86925618011355L359.6446525542638 315.86925618011355L362.2167728041115 315.86925618011355Q363.0640594746495 315.86925618011355 363.0640594746495 316.7165428506516L363.0640594746495 316.7165428506516L363.0640594746495 362.258201392072Q363.0640594746495 363.10548806261005 362.2167728041115 363.10548806261005L362.2167728041115 363.10548806261005L359.6446525542638 363.10548806261005Q358.7973658837258 363.10548806261005 358.7973658837258 362.258201392072L358.7973658837258 362.258201392072Q358.7973658837258 346.4926172724175 349.6587739372082 344.04153797550384L349.6587739372082 344.04153797550384Q347.0866536873605 343.40607297260027 344.24219129341134 343.40607297260027L344.24219129341134 343.40607297260027L307.748343983808 343.40607297260027Q306.6892356456354 343.40607297260027 306.6892356456354 344.4954415490064L306.6892356456354 344.4954415490064L306.6892356456354 396.3009694047617Q306.6892356456354 404.25941206017274 314.0122132981429 405.3185203983453L314.0122132981429 405.3185203983453Q316.13042997448804 405.6513830189138 318.4907285567012 405.6513830189138L318.4907285567012 405.6513830189138L353.89520728989845 405.6513830189138Q364.87967376865964 405.6513830189138 370.93172141536 395.9681067841932L370.93172141536 395.9681067841932Q375.2891957209843 389.0687724669547 376.2575233444564 380.1117419498382L376.2575233444564 380.1117419498382Q376.5601257267914 377.14623860295495 379.4348483589741 377.14623860295495L379.4348483589741 377.14623860295495Q380.70577836478117 377.14623860295495 380.70577836478117 378.5382095616961L380.70577836478117 378.5382095616961L377.19559072969497 414.27555091546185Q376.5601257267914 415.75830258890346 375.71283905625336 415.75830258890346L375.71283905625336 415.75830258890346L257.21374613385973 415.75830258890346Q256.3664594633217 415.75830258890346 256.3664594633217 414.91101591836536Z " fill="#24242a" transform="matrix(0.823075538351588,0,0,0.823075538351588,0,19.530173158572154)"/><path d="M568.5361181242102 374.1659385186838L568.5361181242102 374.1659385186838L568.5361181242102 372.30106358594276Q568.5361181242102 371.7736242110261 569.0635574991269 371.7736242110261L569.0635574991269 371.7736242110261L570.5140157801477 371.7736242110261Q573.3019096189928 371.58525300569875 576.2028261810343 371.5475787646333Q579.1225798636086 371.5099045235678 581.5148941712662 370.850605304922L581.5148941712662 370.850605304922Q586.9399848846946 369.268287180172 586.9399848846946 362.9013404401069L586.9399848846946 362.9013404401069L586.9399848846946 293.1098088663151Q586.9399848846946 286.5544909209225 579.1979283457396 284.76496447031246L579.1979283457396 284.76496447031246Q577.0128223639421 284.29403645699404 574.7523679000135 283.9738054079375L574.7523679000135 283.9738054079375L573.3584209805911 283.9738054079375Q572.8309816056744 283.9738054079375 572.8309816056744 283.4275289124881L572.8309816056744 283.4275289124881L572.8309816056744 281.8452107877382Q572.8309816056744 281.31777141282157 573.3584209805911 281.31777141282157L573.3584209805911 281.31777141282157L636.3497520420646 281.31777141282157Q637.536490635627 281.31777141282157 638.0639300105437 281.75102518507447Q638.5913693854603 282.1842789573275 638.7232292291894 283.63473723834824L638.7232292291894 283.63473723834824L639.9099678227519 302.84860018174027Q639.9099678227519 303.5078994003861 638.9304375550496 303.5078994003861Q637.9320701668146 303.5078994003861 637.4611421534961 302.9051115433385L637.4611421534961 302.9051115433385Q637.0655626223086 302.2458123246927 636.4439376447283 298.06397156642504Q635.8034755466152 293.9009679286901 634.164646060267 291.11307408984493Q632.5069794533862 288.3440173715326 628.3251386951185 287.60936967075577L628.3251386951185 287.60936967075577L600.7099199941256 287.60936967075577Q599.8622495701525 287.60936967075577 599.8622495701525 288.4758772152617L599.8622495701525 288.4758772152617L599.8622495701525 322.7029252232454Q599.8622495701525 323.3622244418912 600.5215487887982 323.3622244418912L600.5215487887982 323.3622244418912L623.4274873566068 323.3622244418912Q632.2997711275261 323.3622244418912 632.2997711275261 313.03948238995116L632.2997711275261 313.03948238995116Q632.2997711275261 312.5120430150345 632.8272105024428 312.5120430150345L632.8272105024428 312.5120430150345L634.4283657477254 312.5120430150345Q634.955805122642 312.5120430150345 634.955805122642 313.03948238995116L634.955805122642 313.03948238995116L634.955805122642 341.38934879172086Q634.955805122642 341.9167881666375 634.4283657477254 341.9167881666375L634.4283657477254 341.9167881666375L632.8272105024428 341.9167881666375Q632.2997711275261 341.9167881666375 632.2997711275261 341.38934879172086L632.2997711275261 341.38934879172086Q632.2997711275261 331.5752089941647 626.6109607266394 330.04940223101295L626.6109607266394 330.04940223101295Q625.0098054813567 329.65382269982547 623.2391161512794 329.65382269982547L623.2391161512794 329.65382269982547L600.5215487887982 329.65382269982547Q599.8622495701525 329.65382269982547 599.8622495701525 330.331959039004L599.8622495701525 330.331959039004L599.8622495701525 362.5811093910503Q599.8622495701525 367.5352720911602 604.4208327390749 368.19457130980607L604.4208327390749 368.19457130980607Q605.7394311763665 368.4017796356661 607.20872657792 368.4017796356661L607.20872657792 368.4017796356661L629.2481576012226 368.4017796356661Q636.0860323546062 368.4017796356661 639.8534564611537 362.3739010651902L639.8534564611537 362.3739010651902Q642.5660018178679 358.07903758372606 643.1687896749155 352.5032499060359L643.1687896749155 352.5032499060359Q643.3571608802429 350.6572120938276 645.146687330853 350.6572120938276L645.146687330853 350.6572120938276Q645.9378463932279 350.6572120938276 645.9378463932279 351.5237196383335L645.9378463932279 351.5237196383335L643.7527404114303 373.77035898749625Q643.3571608802429 374.6933778936004 642.8297215053262 374.6933778936004L642.8297215053262 374.6933778936004L569.0635574991269 374.6933778936004Q568.5361181242102 374.6933778936004 568.5361181242102 374.1659385186838ZM674.3630612771285 267.34062797753046L674.3630612771285 323.43757292402216Q674.3630612771285 325.0198910487721 674.8151521699142 325.0198910487721Q675.2860801832326 325.0198910487721 675.47445138856 324.79384560237924Q675.6816597144201 324.5678001559864 678.2623452274051 321.70455783501035L678.2623452274051 321.70455783501035Q685.7406820789018 313.37855055954043 693.4262272562587 313.37855055954043L693.4262272562587 313.37855055954043Q703.4852496207404 313.37855055954043 708.1945297539247 317.88062236686466L708.1945297539247 317.88062236686466Q713.9586886369423 323.5694327677513 713.9586886369423 337.0191368281258L713.9586886369423 337.0191368281258L713.9586886369423 364.6343555291187Q713.9586886369423 371.1143249923803 721.1167944393825 372.1692037422136L721.1167944393825 372.1692037422136Q724.2249193272842 372.5647832734011 724.2249193272842 373.5631506616362Q724.2249193272842 374.5615180498712 723.5656201086383 374.6933778936004L723.5656201086383 374.6933778936004L694.0290151133063 374.6933778936004Q693.3697158946604 374.5615180498712 693.3697158946604 373.77035898749625L693.3697158946604 373.77035898749625Q693.3697158946604 372.5647832734011 696.4778407825621 372.1692037422136L696.4778407825621 372.1692037422136Q703.6171094644695 371.1143249923803 703.6171094644695 364.6343555291187L703.6171094644695 364.6343555291187L703.6171094644695 337.6784360467716Q703.6171094644695 327.9396447313464 702.2419996655797 325.0198910487721L702.2419996655797 325.0198910487721Q699.5859656704638 319.19922080415625 691.1846099128629 319.19922080415625L691.1846099128629 319.19922080415625Q686.0044017663602 319.19922080415625 680.1837315217443 323.6071070088168Q674.3630612771285 327.9961560929446 674.3630612771285 333.3082240831765L674.3630612771285 333.3082240831765L674.3630612771285 364.6343555291187Q674.3630612771285 371.1143249923803 681.5023299590359 372.1692037422136L681.5023299590359 372.1692037422136Q684.6292919674703 372.5647832734011 684.6292919674703 373.5631506616362Q684.6292919674703 374.5615180498712 683.9511556282918 374.6933778936004L683.9511556282918 374.6933778936004L654.4145506329596 374.6933778936004Q653.7552514143139 374.5615180498712 653.7552514143139 373.77035898749625L653.7552514143139 373.77035898749625Q653.7552514143139 372.5647832734011 656.8633763022156 372.1692037422136L656.8633763022156 372.1692037422136Q664.0214821046557 371.1143249923803 664.0214821046557 364.6343555291187L664.0214821046557 364.6343555291187L664.0214821046557 282.05241911359826Q664.0214821046557 279.26452527475317 660.9698685783522 278.2096465249199L660.9698685783522 278.2096465249199Q659.6512701410606 277.73871851160146 658.125463377909 277.4373245830776Q656.5996566147571 277.1359306545538 655.7143119497185 276.8722109670955Q654.8101301641472 276.6084912796372 654.5840847177543 276.38244583324433Q654.3580392713615 276.1564003868515 654.3580392713615 275.38407844500927Q654.3580392713615 274.6305936236998 655.3564066595966 274.10315424878314L655.3564066595966 274.10315424878314L672.2344666569292 266.153889383968Q673.0256257193041 265.7583098527805 673.2328340451643 265.7583098527805L673.2328340451643 265.7583098527805Q674.3630612771285 265.7583098527805 674.3630612771285 267.34062797753046L674.3630612771285 267.34062797753046ZM771.7698115519131 363.7678479846128Q771.7698115519131 365.48202595309186 773.3898039177286 366.5180675823924Q775.009796283544 367.5352720911602 777.1383909037432 367.5352720911602Q779.2481484034099 367.5352720911602 780.6797695638979 366.44271910026146Q782.111390724386 365.3501661093627 782.6388300993026 365.3501661093627Q783.1662694742192 365.3501661093627 783.1662694742192 366.7817872698507Q783.1662694742192 368.19457130980607 781.8288339163948 369.1929386980411L781.8288339163948 369.1929386980411Q771.9016713956423 376.48290434421045 768.3979669765531 376.48290434421045L768.3979669765531 376.48290434421045Q764.1596148566873 376.48290434421045 761.5035808615713 367.6671319348894L761.5035808615713 367.6671319348894Q761.315209656244 367.00783271624357 761.1833498125147 367.0831811983745L761.1833498125147 367.0831811983745Q752.9703652602414 373.2429196125796 750.841770640042 374.48616956774026L750.841770640042 374.48616956774026Q745.4166799266136 377.6131315761747 739.9539149721198 375.4845369559754Q734.491150017626 373.3747794563088 732.0423243483701 368.47712811779706L732.0423243483701 368.47712811779706Q730.836748634275 365.9529539664103 730.836748634275 363.10854876596693L730.836748634275 363.10854876596693Q730.836748634275 357.4762497266785 735.0185893925427 354.16091651291674Q739.1815930302776 350.845583299155 750.917119122173 347.8128068933843L750.917119122173 347.8128068933843Q754.8917515545805 346.7390910230182 757.9998764424822 345.1002615366701Q761.1080013303838 343.4425949297892 761.2775354151785 342.9716669164708Q761.447069499973 342.5007389031523 761.447069499973 342.1051593719649L761.447069499973 342.1051593719649L761.447069499973 329.39010301236715Q761.447069499973 321.91176616087046 755.6075621348245 318.860152634567L755.6075621348245 318.860152634567Q753.6861758404854 317.88062236686466 751.0113047248367 317.88062236686466Q748.3364336091879 317.88062236686466 745.5862140114083 319.99037986653127Q742.8359944136287 322.11897448673056 742.8359944136287 326.0182584370072L742.8359944136287 326.0182584370072L743.1562254626851 328.5989439499922Q742.7606459314977 329.39010301236715 738.3904339679026 331.2549779451082Q734.0202220043076 333.1010157573164 733.3609227856617 333.2328756010456L733.3609227856617 333.2328756010456Q732.3060440358284 333.2328756010456 732.3060440358284 330.68986432912607Q732.3060440358284 328.1468530572065 733.8318507989802 325.0198910487721Q735.3388204415992 321.91176616087046 738.1267142804443 319.3310806478854L738.1267142804443 319.3310806478854Q744.6255208642386 313.3032020774095 752.9703652602414 313.3032020774095Q761.315209656244 313.3032020774095 766.5330920438122 317.8994594873974Q771.7698115519131 322.51455401791804 771.7698115519131 328.8626636374505L771.7698115519131 328.8626636374505L771.7698115519131 363.7678479846128ZM741.234839168346 361.84646169027354Q741.234839168346 365.0299350603062 743.6836648376018 367.3845751268983Q746.1513276273904 369.72037807295777 749.2971267563576 369.72037807295777Q752.4429258853247 369.72037807295777 756.9449976926489 367.04550695730904Q761.447069499973 364.3706358416604 761.447069499973 361.5073935206843L761.447069499973 361.5073935206843L761.447069499973 348.0765265808426Q761.447069499973 347.34187888006585 761.1080013303838 347.34187888006585Q760.7689331607945 347.34187888006585 760.6370733170654 347.41722736219674L760.6370733170654 347.41722736219674L745.2848200828845 354.5564960441042Q742.8925057752268 356.2895111331161 742.0636724717864 357.4762497266785Q741.234839168346 358.66298832024097 741.234839168346 361.84646169027354ZM838.0576387066158 353.8406854638602L838.0576387066158 353.8406854638602L837.9257788628865 339.8635420285691Q837.9257788628865 331.31148930670633 836.4753205818658 327.86429624921544Q835.0060251803123 324.43594031225723 832.7644078369167 322.66525098217994Q830.5039533729881 320.9133987726354 826.6988550253752 320.9133987726354Q822.8937566777622 320.9133987726354 810.574279849352 326.8847659815131L810.574279849352 326.8847659815131Q808.9166132424712 327.86429624921544 808.8601018808729 328.73080379372135L808.8601018808729 328.73080379372135L808.8601018808729 364.3706358416604Q808.8601018808729 371.0578136307821 816.0182076833131 372.03734389848444L816.0182076833131 372.03734389848444Q819.1263325712148 372.50827191180286 819.1263325712148 373.5254764205707Q819.1263325712148 374.5615180498712 818.4670333525689 374.6933778936004L818.4670333525689 374.6933778936004L788.9304283572369 374.6933778936004Q788.2522920180584 374.5615180498712 788.2522920180584 373.77035898749625L788.2522920180584 373.77035898749625Q788.2522920180584 372.50827191180286 791.3792540264927 372.03734389848444L791.3792540264927 372.03734389848444Q798.5185227084002 371.0578136307821 798.5185227084002 364.3706358416604L798.5185227084002 364.3706358416604L798.5185227084002 326.3573266065965Q798.5185227084002 323.5694327677513 795.4857463026294 322.51455401791804L795.4857463026294 322.51455401791804Q794.148310744805 322.0436260045996 792.6225039816534 321.7422320760758Q791.1155343390344 321.44083814755203 790.211352553463 321.1771184600937Q789.3260078884243 320.9133987726354 789.0811253214987 320.68735332624254Q788.855079875106 320.4613078798497 788.855079875106 319.6889859380075Q788.855079875106 318.93550111669794 789.853447263341 318.4080617417813L789.853447263341 318.4080617417813L806.7315072606737 310.4587968769662Q807.5415034435813 310.0632173457787 807.7298746489087 310.0632173457787L807.7298746489087 310.0632173457787Q808.8601018808729 310.0632173457787 808.8601018808729 311.6455354705286L808.8601018808729 311.6455354705286L808.8601018808729 321.9871146430014Q809.0484730862004 322.6464138616472 809.3875412557895 322.6464138616472L809.3875412557895 322.6464138616472Q809.7831207869771 322.6464138616472 812.2319464562329 321.44083814755203L812.2319464562329 321.44083814755203Q817.9207568571196 318.59643294710867 823.6849157401372 315.95923607252547Q829.4490746231547 313.3032020774095 833.2353358502351 313.3032020774095L833.2353358502351 313.3032020774095Q848.5310777228176 313.3032020774095 848.5310777228176 341.1821404658607L848.5310777228176 341.1821404658607L847.9282898657701 360.52786325298194L847.9282898657701 364.3706358416604Q847.9282898657701 369.5320068676304 853.0896608917401 371.1143249923803L853.0896608917401 371.1143249923803Q855.2747668735376 371.84897269315707 857.2903387705405 372.15036662168086Q859.3247477880761 372.4329234296719 859.9463727656564 372.715480237663Q860.5868348637696 372.9791999251213 860.5868348637696 373.77035898749625Q860.5868348637696 374.5615180498712 859.908698524591 374.6933778936004L859.908698524591 374.6933778936004L827.998616342134 374.6933778936004Q827.3393171234882 374.5615180498712 827.3393171234882 373.77035898749625L827.3393171234882 373.77035898749625Q827.3393171234882 372.50827191180286 830.44744201139 372.03734389848444L830.44744201139 372.03734389848444Q837.5301993316991 371.0578136307821 837.5301993316991 363.824359346211L837.5301993316991 363.824359346211Q838.0576387066158 360.52786325298194 838.0576387066158 353.8406854638602ZM918.5298176224696 321.25246694222466L918.5298176224696 321.25246694222466Q918.5298176224696 325.88639859327805 913.1612382706394 325.88639859327805L913.1612382706394 325.88639859327805Q910.4486929139252 325.88639859327805 908.5649808606515 324.3229175890608Q906.6624316868451 322.77827370537636 905.6452271780772 321.6857207144776Q904.6091855487766 320.59316772357886 903.4977954373452 319.6701488174747L903.4977954373452 319.6701488174747Q898.7320039425626 315.75202774666536 891.8752920686463 318.8036412729688Q885.0185801947299 321.85525479927225 881.3076674497806 331.7824173200248L881.3076674497806 331.7824173200248Q879.2544213117122 337.2828565155841 879.2544213117122 342.70794722901246L879.2544213117122 342.70794722901246Q879.2544213117122 354.36812483877685 884.5476521814114 361.75227608760986Q889.8408830511107 369.1364273364429 900.7852500806309 369.1364273364429L900.7852500806309 369.1364273364429Q908.9228861507736 369.1364273364429 915.4028556140352 361.84646169027354L915.4028556140352 361.84646169027354Q917.3995903905053 359.66135570847604 917.7951699216928 359.66135570847604Q918.1907494528803 359.66135570847604 918.6616774661987 360.0569352396635Q919.1137683589845 360.452514770851 919.1137683589845 361.2248367126932Q919.1137683589845 361.9783215340027 918.7181888277969 362.3739010651902L918.7181888277969 362.3739010651902Q908.5838179811842 376.48290434421045 893.2315647470034 376.48290434421045L893.2315647470034 376.48290434421045Q882.0988265121557 376.48290434421045 874.978394950781 368.19457130980607Q867.8579633894062 359.92507539593436 867.8579633894062 349.26326517440503L867.8579633894062 349.26326517440503Q867.9333118715372 329.5219628560963 877.3895463789713 320.8568874110372L877.3895463789713 320.8568874110372Q885.7343907749739 313.22785359527853 901.1808296118186 313.22785359527853L901.1808296118186 313.22785359527853Q910.7124126013836 313.22785359527853 913.8205374892852 315.1492398896178Q916.9286623771868 317.07062618395696 918.1907494528803 319.99037986653127L918.1907494528803 319.99037986653127Q918.5298176224696 320.64967908517707 918.5298176224696 321.25246694222466ZM973.6849065423245 374.8252377373296L973.6849065423245 368.8727076489846Q973.3646754932679 367.7424804170203 972.8372361183513 368.1003857071423Q972.2909596229019 368.47712811779706 968.5235355163545 370.37967729160357L968.5235355163545 370.37967729160357Q956.1475473263461 376.53941570580866 947.8592142919415 376.53941570580866Q939.5897183780698 376.53941570580866 935.9353169947187 371.2461848361095L935.9353169947187 371.2461848361095Q934.6167185574272 369.268287180172 934.6167185574272 366.34853349759777L934.6167185574272 366.34853349759777L934.6167185574272 325.94290995487626Q934.4095102315671 324.04036078106975 932.9025405889481 322.6464138616472L932.9025405889481 322.6464138616472Q930.8492944508798 320.9133987726354 928.6265142280167 320.78153892890623Q926.4037340051538 320.64967908517707 926.4037340051538 319.4252662505491Q926.4037340051538 318.2008534159212 927.458612754987 317.93713372846287L927.458612754987 317.93713372846287L942.6224947838406 313.5669217648678Q943.4324909667483 313.3032020774095 944.1859757880577 313.3032020774095Q944.9394606093672 313.3032020774095 944.9394606093672 314.43342930937376L944.9394606093672 314.43342930937376L944.9394606093672 358.8701966461011Q944.9394606093672 363.50412829715447 949.045952885504 366.0094653280085Q953.1524451616408 368.5336394793953 959.5570661427714 368.5336394793953Q965.9428500033694 368.5336394793953 971.0477096677412 364.6343555291187L971.0477096677412 364.6343555291187Q972.6300277924912 363.37226845342525 973.6849065423245 361.84646169027354L973.6849065423245 361.84646169027354L973.6849065423245 325.94290995487626Q973.4965353369971 324.04036078106975 971.9707285738452 322.6464138616472L971.9707285738452 322.6464138616472Q969.917482435777 320.9133987726354 967.694702212914 320.78153892890623Q965.471921990051 320.64967908517707 965.471921990051 319.4252662505491Q965.471921990051 318.2008534159212 966.545637860417 317.93713372846287L966.545637860417 317.93713372846287L981.7095198892705 313.5669217648678Q982.5006789516456 313.3032020774095 983.254163772955 313.3032020774095Q984.0264857147972 313.3032020774095 984.0264857147972 314.62180051470114L984.0264857147972 314.62180051470114L984.0264857147972 361.63925336441343Q984.3467167638537 364.55900704698774 985.6841523216781 365.82109412268113Q987.0027507589698 367.0831811983745 989.9790158031421 367.0831811983745L989.9790158031421 367.0831811983745L993.8217883918206 366.8194615109162Q994.2173679230082 366.8194615109162 994.2173679230082 367.5729463322257Q994.2173679230082 368.32643115353517 993.2190005347729 368.79735916685365L993.2190005347729 368.79735916685365L975.6062928366637 376.087324813023Q974.8151337742887 376.48290434421045 974.2500201583066 376.48290434421045Q973.6849065423245 376.48290434421045 973.6849065423245 374.8252377373296L973.6849065423245 374.8252377373296ZM1052.6877900566246 367.7424804170203L1052.6877900566246 367.7424804170203Q1043.5517865982472 376.48290434421045 1032.1741657964737 376.48290434421045L1032.1741657964737 376.48290434421045Q1028.067673520337 376.48290434421045 1020.9660790794951 374.95709758105875L1020.9660790794951 374.95709758105875Q1019.8546889680636 374.95709758105875 1019.7416662448671 375.7482566434337Q1019.6474806422035 376.53941570580866 1019.5909692806053 377.4059232503146L1019.5909692806053 377.4059232503146L1019.5909692806053 405.68044116995327Q1019.5909692806053 410.653440990596 1025.3362910430901 412.31110759747685L1025.3362910430901 412.31110759747685Q1027.860465194477 412.9704068161226 1030.0455711762745 413.2718007446464Q1032.230677158072 413.57319467317024 1032.8523021356523 413.83691436062855Q1033.4927642337655 414.1006340480869 1033.4927642337655 414.8541188693963Q1033.4927642337655 415.6264408112386 1032.8334650151196 415.75830065496774L1032.8334650151196 415.75830065496774L999.6424586364365 415.75830065496774Q998.9831594177906 415.6264408112386 998.9831594177906 414.8164446283309L998.9831594177906 414.8164446283309Q998.9831594177906 413.62970603476845 1002.0912843056923 413.23412650358097L1002.0912843056923 413.23412650358097Q1009.2493901081325 412.17924775374763 1009.2493901081325 405.68044116995327L1009.2493901081325 405.68044116995327L1009.2493901081325 326.2819781244655Q1009.2493901081325 323.4940842856204 1006.197776581829 322.4392055357871L1006.197776581829 322.4392055357871Q1004.8791781445374 321.9871146430014 1003.3533713813857 321.6857207144776Q1001.827564618234 321.3843267859538 1000.9422199531953 321.1206070984955Q1000.0380381676239 320.8568874110372 999.811992721231 320.6120048441116Q999.5859472748382 320.38595939771875 999.5859472748382 319.6324745764092Q999.5859472748382 318.860152634567 1000.5843146630734 318.33271325965035L1000.5843146630734 318.33271325965035L1017.4623746604059 310.25158855110607Q1017.9898140353225 309.98786886364775 1018.5172534102392 309.98786886364775L1018.5172534102392 309.98786886364775Q1019.5909692806053 309.98786886364775 1019.5909692806053 311.5890241089304L1019.5909692806053 311.5890241089304L1019.5909692806053 319.99037986653127Q1019.5909692806053 320.725027567308 1020.3444541019148 320.725027567308Q1021.0979389232243 320.725027567308 1024.0176926057986 318.8036412729688L1024.0176926057986 318.8036412729688Q1032.4378854839322 313.37855055954043 1041.498540460179 313.37855055954043L1041.498540460179 313.37855055954043Q1047.865487200244 313.37855055954043 1053.158718069943 318.53992158551046L1053.158718069943 318.53992158551046Q1060.1096155465232 325.28361073623046 1062.42658137205 337.3393678771823L1062.42658137205 337.3393678771823Q1063.0858805906958 340.7865609346732 1063.0858805906958 344.6670077644171Q1063.0858805906958 348.5286174736283 1061.842630635535 352.84231807562514L1061.842630635535 352.84231807562514Q1059.3184564841483 361.3755336769551 1052.6877900566246 367.7424804170203ZM1033.7564839212237 320.2540995539896L1033.7564839212237 320.2540995539896Q1024.7523403065752 320.2540995539896 1019.5909692806053 325.41547057995956L1019.5909692806053 325.41547057995956L1019.5909692806053 362.63762075264856Q1019.5909692806053 365.9529539664103 1020.7023593920368 366.95132135464536L1020.7023593920368 366.95132135464536Q1023.622113074611 369.45665838549945 1029.649991645087 370.850605304922L1029.649991645087 370.850605304922Q1041.5738889423096 373.5631506616362 1048.1857182493004 365.16179490403533L1048.1857182493004 365.16179490403533Q1052.8949983824848 359.1339163335594 1052.8949983824848 350.58186361169663L1052.8949983824848 350.58186361169663Q1052.8949983824848 333.9675233018223 1045.4166615309882 325.6791902674179L1045.4166615309882 325.6791902674179Q1040.914589723664 320.64967908517707 1033.7564839212237 320.2540995539896Z " fill="azure" transform="matrix(0.823075538351588,0,0,0.823075538351588,0,19.530173158572154)"/></g></svg>